<?xml version="1.0" encoding="UTF-8" standalone="no"?>
<!-- Generator: Adobe Illustrator 27.2.0, SVG Export Plug-In . SVG Version: 6.00 Build 0)  -->

<svg
   version="1.1"
   id="Слой_1"
   x="0px"
   y="0px"
   viewBox="0 0 368.33999 69.939999"
   xml:space="preserve"
   sodipodi:docname="logo_svg_textonly.svg"
   inkscape:version="1.3.2 (091e20e, 2023-11-25, custom)"
   width="368.34"
   height="69.940002"
   xmlns:inkscape="http://www.inkscape.org/namespaces/inkscape"
   xmlns:sodipodi="http://sodipodi.sourceforge.net/DTD/sodipodi-0.dtd"
   xmlns="http://www.w3.org/2000/svg"
   xmlns:svg="http://www.w3.org/2000/svg"><defs
   id="defs50" /><sodipodi:namedview
   id="namedview50"
   pagecolor="#ffffff"
   bordercolor="#000000"
   borderopacity="0.25"
   inkscape:showpageshadow="2"
   inkscape:pageopacity="0.0"
   inkscape:pagecheckerboard="0"
   inkscape:deskcolor="#d1d1d1"
   inkscape:zoom="1.3791828"
   inkscape:cx="183.80449"
   inkscape:cy="-112.02286"
   inkscape:window-width="1920"
   inkscape:window-height="1017"
   inkscape:window-x="-8"
   inkscape:window-y="-8"
   inkscape:window-maximized="1"
   inkscape:current-layer="Слой_1" />
<style
   type="text/css"
   id="style1">
	.st0{fill-rule:evenodd;clip-rule:evenodd;fill:#9A9CAC;}
	.st1{fill-rule:evenodd;clip-rule:evenodd;}
	.st2{fill-rule:evenodd;clip-rule:evenodd;fill:#FFFF00;}
	.st3{fill-rule:evenodd;clip-rule:evenodd;fill:url(#SVGID_1_);}
	.st4{fill-rule:evenodd;clip-rule:evenodd;fill:url(#SVGID_00000079487947636999149510000001778489031945344144_);}
	.st5{fill-rule:evenodd;clip-rule:evenodd;fill:url(#SVGID_00000036249129855762811350000011472415190306488993_);}
	.st6{fill-rule:evenodd;clip-rule:evenodd;fill:url(#SVGID_00000084528490196940589530000017318152652179771550_);}
	.st7{fill-rule:evenodd;clip-rule:evenodd;fill:url(#SVGID_00000079469588518481076740000004925722430704774036_);}
	.st8{fill-rule:evenodd;clip-rule:evenodd;fill:url(#SVGID_00000176022718941648937320000010117534489175104442_);}
	.st9{fill-rule:evenodd;clip-rule:evenodd;fill:url(#SVGID_00000069377407575990334100000005405196944223870637_);}
	.st10{fill-rule:evenodd;clip-rule:evenodd;fill:url(#SVGID_00000058579945668472571140000008706355905219908514_);}
	.st11{fill-rule:evenodd;clip-rule:evenodd;fill:url(#SVGID_00000052816271678191966600000003448818905023084185_);}
	.st12{fill-rule:evenodd;clip-rule:evenodd;fill:url(#SVGID_00000140727463266980153880000008646897092678867082_);}
	.st13{fill-rule:evenodd;clip-rule:evenodd;fill:url(#SVGID_00000028302364323593217780000001896675747573567876_);}
	.st14{fill-rule:evenodd;clip-rule:evenodd;fill:url(#SVGID_00000173871494788715035720000003487621818344634803_);}
	.st15{fill-rule:evenodd;clip-rule:evenodd;fill:url(#SVGID_00000162328300220279239670000009035596425583142784_);}
	.st16{fill-rule:evenodd;clip-rule:evenodd;fill:url(#SVGID_00000080903140143895900730000000730194454105467530_);}
	.st17{fill-rule:evenodd;clip-rule:evenodd;fill:url(#SVGID_00000119079049635009608870000011596427680544564891_);}
	.st18{fill-rule:evenodd;clip-rule:evenodd;fill:url(#SVGID_00000111175667372168884860000013027482747623275139_);}
	.st19{fill-rule:evenodd;clip-rule:evenodd;fill:url(#SVGID_00000135661877949319864470000009328666354258363573_);}
	.st20{fill-rule:evenodd;clip-rule:evenodd;fill:url(#SVGID_00000006693418815258274860000000741988802882694794_);}
	.st21{fill-rule:evenodd;clip-rule:evenodd;fill:url(#SVGID_00000089574543662970352930000010947612734177356991_);}
	.st22{fill-rule:evenodd;clip-rule:evenodd;fill:#707181;}
	.st23{fill-rule:evenodd;clip-rule:evenodd;fill:url(#SVGID_00000132078222633070389150000004589688742679411638_);}
	.st24{fill-rule:evenodd;clip-rule:evenodd;fill:url(#SVGID_00000174560770720523359390000015937860427354316983_);}
</style>
<g
   id="g51"
   inkscape:label="logo_text"
   style="display:inline"
   transform="translate(-236.76,-443.27)"><path
     class="st1"
     d="m 236.76,481.75 h 27.48 v -2.12 H 242.2 v -16.27 h 19.86 v -2.12 H 242.2 v -15.46 h 21.5 v -2.12 h -26.94 z m 41.26,-38.1 h -5.66 v 38.1 h 2.18 v -32.49 l 14.69,30.86 h 3.32 l 13.93,-30.91 v 32.54 h 5.44 v -38.1 h -5.44 v 0.27 l -14.04,30.59 z m 44.51,38.1 h 5.44 v -38.1 h -5.44 z m 34.13,-15.73 h 9.69 v 10.01 c -2.23,2.88 -6.31,4.19 -10.23,4.19 -9.69,0 -14.04,-8.44 -14.04,-17.47 0,-8.76 3.76,-17.52 13.06,-17.52 6.26,0 10.45,3.86 11.21,10.01 h 5.44 c -1.2,-8.38 -8.22,-11.97 -16.44,-11.97 -12.35,0 -18.94,8.27 -18.94,19.32 0,10.72 6.31,19.59 20.14,19.59 6.53,0 12.3,-2.01 15.24,-6.48 v -11.8 h -15.13 z m 24.65,15.73 h 5.44 v -16.87 h 6.59 l 11.27,16.87 h 5.88 l -11.54,-17.31 c 5.82,-1.14 9.47,-4.73 9.47,-10.18 0,-6.64 -5.61,-10.61 -13.99,-10.61 h -13.12 z m 11.76,-35.97 c 5.93,0 9.69,3.05 9.69,8.54 0,5.5 -3.76,8.44 -9.63,8.44 h -6.37 v -16.98 z m 51.81,35.97 h 6.15 l -17.8,-38.1 h -2.99 l -16.76,38.1 h 2.78 l 5.06,-11.37 h 18.39 z m -14.37,-31.84 8.27,18.34 h -16.49 z m 29.06,1.53 27.21,30.31 h 2.18 v -38.1 h -2.18 v 30.31 l -27.21,-30.31 h -2.18 v 38.1 h 2.18 z m 35.92,-5.66 h 13.99 v 35.97 h 5.44 v -35.97 h 13.99 v -2.12 h -33.42 z m 39.89,35.97 h 5.33 v -38.1 h -5.28 z m 23.08,0 h 6.91 l -19.16,-21.28 c 5.99,-6.2 10.45,-10.45 16.54,-16.82 h -2.99 l -18.94,18.99 z m 40.49,0 h 6.15 l -17.8,-38.1 h -2.99 l -16.76,38.1 h 2.78 l 5.06,-11.37 h 18.39 z m -14.37,-31.84 8.27,18.34 h -16.49 z"
     id="path1" /><path
     class="st2"
     d="m 321.58,512.97 h 2.72 v -19.43 h -2.69 z m 11.77,0 h 3.53 l -9.77,-10.85 c 3.05,-3.16 5.33,-5.33 8.44,-8.58 h -1.53 l -9.66,9.69 z m 18.38,-13.32 h -2.72 v 8.08 c -0.44,2.83 -2.25,4.44 -4.14,4.44 -1.89,0 -2.94,-1.47 -2.94,-3.94 v -8.58 h -2.69 v 8.85 c 0,2.8 1.92,4.66 4.94,4.66 2.05,0 3.83,-0.89 5,-2.36 l 0.89,2.17 h 1.67 v -13.32 z m 4.72,13.32 h 2.69 v -20.82 h -2.69 z m 6.08,-12.3 h 1.92 v 8.77 c 0,2.25 1.53,3.77 4.05,3.77 2.78,0 3.58,-1.86 3.58,-1.86 l -0.39,-0.5 c 0,0 -0.8,1 -2.25,1 -1.47,0 -2.28,-0.94 -2.28,-2.5 v -8.69 h 4.77 v -1.03 h -4.77 v -3.47 l -2.72,0.97 v 2.5 h -1.92 v 1.04 z m 25.34,-1.02 h -2.72 v 8.08 c -0.44,2.83 -2.25,4.44 -4.14,4.44 -1.89,0 -2.94,-1.47 -2.94,-3.94 v -8.58 h -2.69 v 8.85 c 0,2.8 1.92,4.66 4.94,4.66 2.05,0 3.83,-0.89 5,-2.36 l 0.89,2.17 h 1.67 v -13.32 z m 4.72,13.32 h 2.69 v -7.44 c 0.39,-2.78 2.22,-3.94 4.16,-3.94 0.64,0 0.97,0.19 0.97,0.19 v -2.33 c -2.11,0 -3.97,1.05 -5.16,2.72 l -1.03,-2.53 h -1.64 v 13.33 z m 11.16,0 h 2.69 v -7.88 c 0.39,-2.94 2.22,-4.64 4.16,-4.64 1.86,0 2.91,1.5 2.91,3.94 v 8.58 h 2.72 v -8.85 c 0,-2.8 -1.94,-4.66 -4.94,-4.66 -2.08,0 -3.86,0.89 -5.02,2.39 l -0.89,-2.19 h -1.64 v 13.31 z m 17.21,0 h 2.69 v -13.32 h -2.69 z m -0.36,-17.43 c 0,0.94 0.78,1.69 1.69,1.69 0.94,0 1.72,-0.75 1.72,-1.69 0,-0.94 -0.78,-1.69 -1.72,-1.69 -0.92,0 -1.69,0.75 -1.69,1.69 z m 37.05,3.91 c -4.02,0 -6.88,2.86 -6.88,6.88 0,3.97 2.8,6.83 7,6.83 3.16,0 6.05,-1.64 6.52,-4.25 h -2.58 c -0.44,1.92 -1.97,3.33 -3.86,3.33 -2.39,0 -4.22,-2.25 -4.3,-5.64 h 10.71 v -1.14 c -0.05,-3.87 -3.14,-6.01 -6.61,-6.01 z m 0.03,0.95 c 1.92,0 3.97,2.14 4.02,5.08 h -8.13 c 0.25,-3.08 2.03,-5.08 4.11,-5.08 z m 10.49,12.57 h 2.69 v -7.88 c 0.39,-2.94 2.22,-4.64 4.16,-4.64 1.86,0 2.91,1.5 2.91,3.94 v 8.58 h 2.72 v -8.85 c 0,-2.8 -1.94,-4.66 -4.94,-4.66 -2.08,0 -3.86,0.89 -5.02,2.39 l -0.89,-2.19 h -1.64 v 13.31 z m 15.6,-12.3 h 1.92 v 8.77 c 0,2.25 1.53,3.77 4.05,3.77 2.78,0 3.58,-1.86 3.58,-1.86 l -0.39,-0.5 c 0,0 -0.8,1 -2.25,1 -1.47,0 -2.28,-0.94 -2.28,-2.5 v -8.69 h 4.77 v -1.03 h -4.77 v -3.47 l -2.72,0.97 v 2.5 h -1.92 v 1.04 z m 18.27,-1.19 c -3.28,0 -5.75,1.44 -5.75,4.22 h 2.41 c 0,-2.17 1.5,-3.22 3.3,-3.22 2.11,0 3.03,1.36 3.03,3.89 v 1.3 c -0.86,-0.14 -1.8,-0.22 -2.75,-0.22 -3.66,0 -6.47,1.08 -6.47,3.94 0,2.61 2.33,3.77 5.02,3.77 2.14,0 3.64,-0.72 4.55,-2 l 0.67,1.8 h 1.67 v -8.66 c 0.01,-3.1 -2.07,-4.82 -5.68,-4.82 z m -3.64,9.88 c 0,-2.11 1.92,-2.94 4.58,-2.94 0.72,0 1.44,0.08 2.05,0.17 v 1.64 c -0.31,2.55 -1.42,3.8 -3.5,3.8 -1.66,0 -3.13,-0.83 -3.13,-2.67 z m 14.05,3.61 h 2.69 v -7.44 c 0.39,-2.78 2.22,-3.94 4.16,-3.94 0.64,0 0.97,0.19 0.97,0.19 v -2.33 c -2.11,0 -3.97,1.05 -5.16,2.72 l -1.03,-2.53 h -1.64 v 13.33 z m -74.95,-6.66 c 0,-3.53 1.86,-5.91 4.25,-5.91 1.83,0 3.33,1.39 3.77,3.55 h 2.42 c -0.5,-2.78 -3.22,-4.5 -6.38,-4.5 -3.97,0 -6.83,2.86 -6.83,6.86 0,4 2.86,6.86 6.91,6.86 3.14,0 5.83,-1.58 6.33,-4.5 h -2.44 c -0.44,2.47 -1.97,3.58 -3.75,3.58 -2.42,0 -4.28,-2.39 -4.28,-5.94 z"
     id="path2" /></g>

</svg>
